<svg width="17" height="18" viewBox="0 0 17 18" fill="none" xmlns="http://www.w3.org/2000/svg">
<path d="M13.66 5.86116C13.66 4.58789 13.1547 3.36678 12.2553 2.46644C11.3558 1.56611 10.1358 1.0603 8.8638 1.0603C7.59176 1.0603 6.37181 1.56611 5.47234 2.46644C4.57287 3.36678 4.06756 4.58789 4.06756 5.86116C4.06756 11.4622 1.66943 13.0624 1.66943 13.0624H16.0582C16.0582 13.0624 13.66 11.4622 13.66 5.86116Z" stroke="white" stroke-width="1.5" stroke-linecap="round" stroke-linejoin="round"/>
<path d="M10.2468 16.2629C10.1062 16.5052 9.90451 16.7063 9.66181 16.8461C9.41911 16.9859 9.14394 17.0595 8.86386 17.0595C8.58378 17.0595 8.30861 16.9859 8.06591 16.8461C7.82321 16.7063 7.62149 16.5052 7.48096 16.2629" stroke="white" stroke-width="1.5" stroke-linecap="round" stroke-linejoin="round"/>
</svg>
