<svg width="112" height="31" viewBox="0 0 112 31" fill="none" xmlns="http://www.w3.org/2000/svg">
<path d="M40.3336 24.4212C39.8231 24.4212 39.4094 24.2627 39.0925 23.9458C38.7932 23.6289 38.6436 23.2152 38.6436 22.7047V7.2567C38.6436 6.74616 38.7844 6.35006 39.0661 6.06839C39.3653 5.78671 39.7702 5.64588 40.2808 5.64588H49.5496C50.6235 5.64588 51.1604 6.1036 51.1604 7.01903C51.1604 7.91687 50.6235 8.36578 49.5496 8.36578H41.9972V13.4359H49.0215C50.0953 13.4359 50.6323 13.8936 50.6323 14.8091C50.6323 15.7069 50.0953 16.1558 49.0215 16.1558H41.9972V22.7047C41.9972 23.2152 41.8476 23.6289 41.5483 23.9458C41.249 24.2627 40.8441 24.4212 40.3336 24.4212Z" fill="white"/>
<path d="M59.4691 24.474C58.1487 24.474 56.9868 24.2011 55.9834 23.6554C54.9975 23.1096 54.2317 22.3262 53.686 21.3051C53.1402 20.2841 52.8674 19.0958 52.8674 17.7402C52.8674 16.3847 53.1402 15.2052 53.686 14.2017C54.2317 13.1806 54.9975 12.3972 55.9834 11.8515C56.9868 11.3057 58.1487 11.0329 59.4691 11.0329C60.7894 11.0329 61.9425 11.3057 62.9284 11.8515C63.9318 12.3972 64.6976 13.1806 65.2258 14.2017C65.7715 15.2052 66.0444 16.3847 66.0444 17.7402C66.0444 19.0958 65.7715 20.2841 65.2258 21.3051C64.6976 22.3262 63.9318 23.1096 62.9284 23.6554C61.9425 24.2011 60.7894 24.474 59.4691 24.474ZM59.4427 21.9125C60.5165 21.9125 61.3352 21.5604 61.8985 20.8562C62.4619 20.152 62.7435 19.1134 62.7435 17.7402C62.7435 16.3847 62.4619 15.3548 61.8985 14.6506C61.3352 13.9288 60.5253 13.5679 59.4691 13.5679C58.4128 13.5679 57.5942 13.9288 57.0132 14.6506C56.4499 15.3548 56.1682 16.3847 56.1682 17.7402C56.1682 19.1134 56.4499 20.152 57.0132 20.8562C57.5766 21.5604 58.3864 21.9125 59.4427 21.9125Z" fill="white"/>
<path d="M75.1863 16.8686C73.866 16.8686 72.7041 16.5957 71.7006 16.05C70.7148 15.5042 69.949 14.7208 69.4032 13.6998C68.8575 12.6787 68.5846 11.4904 68.5846 10.1348C68.5846 8.77928 68.8575 7.59978 69.4032 6.59631C69.949 5.57525 70.7148 4.79185 71.7006 4.2461C72.7041 3.70036 73.866 3.42749 75.1863 3.42749C76.5067 3.42749 77.6598 3.70036 78.6456 4.2461C79.6491 4.79185 80.4149 5.57525 80.943 6.59631C81.4887 7.59978 81.7616 8.77928 81.7616 10.1348C81.7616 11.4904 81.4887 12.6787 80.943 13.6998C80.4149 14.7208 79.6491 15.5042 78.6456 16.05C77.6598 16.5957 76.5067 16.8686 75.1863 16.8686ZM75.1599 14.3071C76.2338 14.3071 77.0524 13.955 77.6157 13.2508C78.1791 12.5467 78.4608 11.508 78.4608 10.1348C78.4608 8.77928 78.1791 7.74941 77.6157 7.04523C77.0524 6.32344 76.2426 5.96255 75.1863 5.96255C74.13 5.96255 73.3114 6.32344 72.7305 7.04523C72.1671 7.74941 71.8855 8.77928 71.8855 10.1348C71.8855 11.508 72.1671 12.5467 72.7305 13.2508C73.2938 13.955 74.1036 14.3071 75.1599 14.3071Z" fill="white"/>
<path d="M93.2486 9.29003C93.7415 9.29003 94.1464 9.43086 94.4633 9.71254C94.7802 9.99421 94.9386 10.3639 94.9386 10.8216V26.6129C94.9386 27.0882 94.789 27.4667 94.4897 27.7484C94.1905 28.0301 93.7943 28.1709 93.3014 28.1709C92.8085 28.1709 92.4124 28.0301 92.1131 27.7484C91.8138 27.4667 91.6642 27.0882 91.6642 26.6129V25.9528C91.2769 26.6745 90.7135 27.2379 89.9742 27.6428C89.2524 28.0477 88.425 28.2501 87.4919 28.2501C86.3828 28.2501 85.3882 27.9685 84.5079 27.4051C83.6453 26.8418 82.9675 26.0496 82.4746 25.0285C81.9993 23.9898 81.7616 22.8015 81.7616 21.4636C81.7616 20.1256 81.9993 18.9549 82.4746 17.9515C82.9675 16.948 83.6453 16.1734 84.5079 15.6277C85.3706 15.0819 86.3652 14.8091 87.4919 14.8091C88.425 14.8091 89.2524 15.0027 89.9742 15.39C90.6959 15.7773 91.2505 16.3231 91.6378 17.0272V10.7688C91.6378 10.3287 91.7786 9.97661 92.0603 9.71254C92.3596 9.43086 92.7557 9.29003 93.2486 9.29003ZM88.3633 25.6887C89.4196 25.6887 90.2294 25.3278 90.7928 24.606C91.3737 23.8842 91.6642 22.8544 91.6642 21.5164C91.6642 20.1785 91.3737 19.1574 90.7928 18.4532C90.2294 17.7314 89.4284 17.3705 88.3897 17.3705C87.3335 17.3705 86.5148 17.7226 85.9339 18.4268C85.353 19.131 85.0625 20.1432 85.0625 21.4636C85.0625 22.8015 85.353 23.8402 85.9339 24.5796C86.5148 25.319 87.3247 25.6887 88.3633 25.6887Z" fill="white"/>
<path d="M108.422 6.59652C108.563 6.27964 108.748 6.05078 108.977 5.90995C109.223 5.75151 109.487 5.67228 109.769 5.67228C110.174 5.67228 110.535 5.81312 110.852 6.09479C111.186 6.35886 111.354 6.69335 111.354 7.09825C111.354 7.2919 111.301 7.49436 111.195 7.70561L103.986 22.8103C103.687 23.4089 103.22 23.7082 102.586 23.7082C102.182 23.7082 101.821 23.5761 101.504 23.3121C101.205 23.0656 101.055 22.7487 101.055 22.3614C101.055 22.1678 101.108 21.9477 101.213 21.7012L103.009 17.9251L98.0973 7.70561C98.0093 7.52957 97.9653 7.32711 97.9653 7.09825C97.9653 6.69335 98.1325 6.35006 98.467 6.06839C98.8191 5.78671 99.2152 5.64588 99.6553 5.64588C99.9546 5.64588 100.227 5.7251 100.474 5.88354C100.72 6.02438 100.914 6.25324 101.055 6.57012L104.752 14.7298L108.422 6.59652Z" fill="white"/>
<path d="M29.4859 25.7725L18.8838 15.1602L19.3645 14.679C19.8427 14.2004 20.4576 13.9157 21.096 13.8775C22.1794 13.8128 23.1988 13.3538 23.9666 12.5853L30.2426 6.30335L28.9874 5.04695L24.1758 9.8631L22.9206 8.60671L27.7321 3.7905L26.4769 2.53411L21.6654 7.35026L20.4102 6.09386L25.2218 1.27771L23.9666 0.0213751L17.6906 6.30335C16.9228 7.0719 16.4644 8.09229 16.3996 9.17673C16.3615 9.81573 16.0772 10.4312 15.5989 10.9099L15.1183 11.391L3.73826 0H2.65409L2.43273 0.563095C1.84841 2.04929 1.59878 3.56935 1.71088 4.95885C1.83865 6.54262 2.43971 7.91388 3.44929 8.92437L10.5159 15.9978L0.778613 25.7445C-0.259538 26.7837 -0.259538 28.4745 0.778613 29.5136C1.86835 30.6044 3.56701 30.4917 4.54411 29.5136L15.1183 18.9293L25.7204 29.5416C26.8643 30.6867 28.5738 30.4547 29.4859 29.5416C30.5241 28.5026 30.5241 26.8117 29.4859 25.7725ZM16.8541 12.1663C17.6397 11.38 18.1076 10.356 18.1716 9.28272C18.2104 8.63252 18.4854 8.02058 18.9459 7.55968L19.1551 7.35026L22.9207 11.1194L22.7115 11.3289C22.251 11.7898 21.6397 12.065 20.9901 12.1039C19.9179 12.168 18.8948 12.6363 18.1093 13.4226L17.6287 13.9038L16.3735 12.6474L16.8541 12.1663ZM3.28899 28.2574C2.94293 28.6037 2.37991 28.6038 2.0338 28.2574C1.68775 27.9109 1.68775 27.3473 2.0338 27.001L11.7712 17.2542L13.0264 18.5106L3.28899 28.2574ZM14.2644 17.237L4.70442 7.66792C3.35914 6.32129 3.26248 4.2704 3.69141 2.46595L16.3563 15.1431L14.2644 17.237ZM28.2307 28.2853C27.8846 28.6317 27.3217 28.6317 26.9756 28.2853L16.3734 17.673L17.6286 16.4166L28.2307 27.0289C28.3984 27.1967 28.4907 27.4198 28.4907 27.6571C28.4907 27.8944 28.3984 28.1175 28.2307 28.2853Z" fill="white"/>
</svg>
