<svg width="16" height="16" viewBox="0 0 16 16" fill="none" xmlns="http://www.w3.org/2000/svg">
<path d="M14.2473 0.5H5.67592C5.39176 0.5 5.11924 0.612882 4.91831 0.813814C4.71737 1.01475 4.60449 1.28727 4.60449 1.57143H14.2473V14.4286H5.67592V9.17857H4.60449V14.4286C4.60449 14.7127 4.71737 14.9853 4.91831 15.1862C5.11924 15.3871 5.39176 15.5 5.67592 15.5H14.2473C14.5315 15.5 14.804 15.3871 15.005 15.1862C15.2059 14.9853 15.3188 14.7127 15.3188 14.4286V1.57143C15.3188 1.28727 15.2059 1.01475 15.005 0.813814C14.804 0.612882 14.5315 0.5 14.2473 0.5Z" fill="white"/>
<path d="M7.34735 8.24643C7.29127 8.29445 7.24572 8.35355 7.21357 8.42002C7.18141 8.48648 7.16334 8.55887 7.16049 8.63265C7.15764 8.70643 7.17007 8.78 7.19701 8.84874C7.22394 8.91749 7.26479 8.97993 7.317 9.03213C7.36921 9.08434 7.43164 9.12519 7.50039 9.15213C7.56914 9.17906 7.64271 9.19149 7.71649 9.18864C7.79026 9.18579 7.86266 9.16772 7.92912 9.13557C7.99558 9.10341 8.05468 9.05787 8.10271 9.00179L11.2045 5.9L8.10806 2.79821C8.00558 2.71045 7.87375 2.66459 7.73893 2.6698C7.6041 2.67501 7.47621 2.7309 7.3808 2.82631C7.28539 2.92171 7.2295 3.04961 7.22429 3.18444C7.21908 3.31926 7.26494 3.45109 7.35271 3.55357L9.15806 5.32143H1.39021C1.24813 5.32143 1.11187 5.37787 1.0114 5.47834C0.910933 5.5788 0.854492 5.71506 0.854492 5.85714C0.854492 5.99922 0.910933 6.13548 1.0114 6.23595C1.11187 6.33642 1.24813 6.39286 1.39021 6.39286H9.15806L7.34735 8.24643Z" fill="white"/>
</svg>
